<?xml version="1.0" encoding="UTF-8" standalone="no"?>
<!DOCTYPE svg PUBLIC "-//W3C//DTD SVG 1.1//EN"
 "http://www.w3.org/Graphics/SVG/1.1/DTD/svg11.dtd">
<!-- Generated by graphviz version 2.36.0 (20140111.2315)
 -->
<!-- Title: models_diagram Pages: 1 -->
<svg width="992pt" height="870pt"
 viewBox="0.00 0.00 992.00 870.00" xmlns="http://www.w3.org/2000/svg" xmlns:xlink="http://www.w3.org/1999/xlink">
<g id="graph0" class="graph" transform="scale(1 1) rotate(0) translate(4 866)">
<title>models_diagram</title>
<polygon fill="none" stroke="none" points="-4,4 -4,-866 988,-866 988,4 -4,4"/>
<!-- ApplicationRecord -->
<g id="node1" class="node"><title>ApplicationRecord</title>
<ellipse fill="none" stroke="black" cx="219" cy="-793" rx="96.2631" ry="18"/>
<text text-anchor="middle" x="219" y="-789.3" font-family="Times,serif" font-size="14.00">ApplicationRecord</text>
</g>
<!-- BettingPool -->
<g id="node2" class="node"><title>BettingPool</title>
<path fill="none" stroke="black" d="M346,-725C346,-725 638,-725 638,-725 644,-725 650,-731 650,-737 650,-737 650,-849 650,-849 650,-855 644,-861 638,-861 638,-861 346,-861 346,-861 340,-861 334,-855 334,-849 334,-849 334,-737 334,-737 334,-731 340,-725 346,-725"/>
<text text-anchor="middle" x="492" y="-845.8" font-family="Times,serif" font-size="14.00">BettingPool</text>
<polyline fill="none" stroke="black" points="334,-838 650,-838 "/>
<text text-anchor="start" x="342" y="-822.8" font-family="Times,serif" font-size="14.00">id :bigint</text>
<text text-anchor="start" x="342" y="-807.8" font-family="Times,serif" font-size="14.00">date :date</text>
<text text-anchor="start" x="342" y="-792.8" font-family="Times,serif" font-size="14.00">group_id :bigint</text>
<text text-anchor="start" x="342" y="-777.8" font-family="Times,serif" font-size="14.00">created_at :timestamp without time zone</text>
<text text-anchor="start" x="342" y="-762.8" font-family="Times,serif" font-size="14.00">updated_at :timestamp without time zone</text>
<text text-anchor="start" x="342" y="-747.8" font-family="Times,serif" font-size="14.00">value :double precision</text>
<text text-anchor="start" x="342" y="-732.8" font-family="Times,serif" font-size="14.00">value_per_participant :double precision</text>
</g>
<!-- Group -->
<g id="node4" class="node"><title>Group</title>
<path fill="none" stroke="black" d="M12,-558.5C12,-558.5 304,-558.5 304,-558.5 310,-558.5 316,-564.5 316,-570.5 316,-570.5 316,-637.5 316,-637.5 316,-643.5 310,-649.5 304,-649.5 304,-649.5 12,-649.5 12,-649.5 6,-649.5 0,-643.5 0,-637.5 0,-637.5 0,-570.5 0,-570.5 0,-564.5 6,-558.5 12,-558.5"/>
<text text-anchor="middle" x="158" y="-634.3" font-family="Times,serif" font-size="14.00">Group</text>
<polyline fill="none" stroke="black" points="0,-626.5 316,-626.5 "/>
<text text-anchor="start" x="8" y="-611.3" font-family="Times,serif" font-size="14.00">id :bigint</text>
<text text-anchor="start" x="8" y="-596.3" font-family="Times,serif" font-size="14.00">name :character varying</text>
<text text-anchor="start" x="8" y="-581.3" font-family="Times,serif" font-size="14.00">created_at :timestamp without time zone</text>
<text text-anchor="start" x="8" y="-566.3" font-family="Times,serif" font-size="14.00">updated_at :timestamp without time zone</text>
</g>
<!-- BettingPool&#45;&gt;Group -->
<g id="edge1" class="edge"><title>BettingPool&#45;&gt;Group</title>
<path fill="none" stroke="#6291fe" d="M371.89,-724.753C330.596,-701.633 285.14,-676.183 246.791,-654.712"/>
<polygon fill="#6291fe" stroke="#6291fe" points="248.146,-651.46 237.711,-649.628 244.726,-657.568 248.146,-651.46"/>
</g>
<!-- LotteryBet -->
<g id="node6" class="node"><title>LotteryBet</title>
<path fill="none" stroke="black" d="M680,-521C680,-521 972,-521 972,-521 978,-521 984,-527 984,-533 984,-533 984,-675 984,-675 984,-681 978,-687 972,-687 972,-687 680,-687 680,-687 674,-687 668,-681 668,-675 668,-675 668,-533 668,-533 668,-527 674,-521 680,-521"/>
<text text-anchor="middle" x="826" y="-671.8" font-family="Times,serif" font-size="14.00">LotteryBet</text>
<polyline fill="none" stroke="black" points="668,-664 984,-664 "/>
<text text-anchor="start" x="676" y="-648.8" font-family="Times,serif" font-size="14.00">id :bigint</text>
<text text-anchor="start" x="676" y="-633.8" font-family="Times,serif" font-size="14.00">betting_pool_id :bigint</text>
<text text-anchor="start" x="676" y="-618.8" font-family="Times,serif" font-size="14.00">sequence :integer</text>
<text text-anchor="start" x="676" y="-603.8" font-family="Times,serif" font-size="14.00">numbers :text</text>
<text text-anchor="start" x="676" y="-588.8" font-family="Times,serif" font-size="14.00">lottery_id :bigint</text>
<text text-anchor="start" x="676" y="-573.8" font-family="Times,serif" font-size="14.00">first_draw :integer</text>
<text text-anchor="start" x="676" y="-558.8" font-family="Times,serif" font-size="14.00">last_draw :integer</text>
<text text-anchor="start" x="676" y="-543.8" font-family="Times,serif" font-size="14.00">created_at :timestamp without time zone</text>
<text text-anchor="start" x="676" y="-528.8" font-family="Times,serif" font-size="14.00">updated_at :timestamp without time zone</text>
</g>
<!-- BettingPool&#45;&gt;LotteryBet -->
<g id="edge2" class="edge"><title>BettingPool&#45;&gt;LotteryBet</title>
<path fill="none" stroke="#df17ca" d="M612.721,-720.728C629.275,-711.377 646.486,-701.711 663.632,-692.135"/>
<ellipse fill="none" stroke="#df17ca" cx="609.084" cy="-722.784" rx="4.00002" ry="4.00002"/>
<polygon fill="#df17ca" stroke="#df17ca" points="663.856,-692.01 674.782,-691.067 668.223,-689.574 672.589,-687.138 672.589,-687.138 672.589,-687.138 668.223,-689.574 670.396,-683.208 663.856,-692.01 663.856,-692.01"/>
</g>
<!-- PoolParticipation -->
<g id="node7" class="node"><title>PoolParticipation</title>
<path fill="none" stroke="black" d="M346,-551C346,-551 638,-551 638,-551 644,-551 650,-557 650,-563 650,-563 650,-645 650,-645 650,-651 644,-657 638,-657 638,-657 346,-657 346,-657 340,-657 334,-651 334,-645 334,-645 334,-563 334,-563 334,-557 340,-551 346,-551"/>
<text text-anchor="middle" x="492" y="-641.8" font-family="Times,serif" font-size="14.00">PoolParticipation</text>
<polyline fill="none" stroke="black" points="334,-634 650,-634 "/>
<text text-anchor="start" x="342" y="-618.8" font-family="Times,serif" font-size="14.00">id :bigint</text>
<text text-anchor="start" x="342" y="-603.8" font-family="Times,serif" font-size="14.00">betting_pool_id :bigint</text>
<text text-anchor="start" x="342" y="-588.8" font-family="Times,serif" font-size="14.00">user_group_id :bigint</text>
<text text-anchor="start" x="342" y="-573.8" font-family="Times,serif" font-size="14.00">created_at :timestamp without time zone</text>
<text text-anchor="start" x="342" y="-558.8" font-family="Times,serif" font-size="14.00">updated_at :timestamp without time zone</text>
</g>
<!-- BettingPool&#45;&gt;PoolParticipation -->
<g id="edge3" class="edge"><title>BettingPool&#45;&gt;PoolParticipation</title>
<path fill="none" stroke="#42c9b2" d="M485.363,-716.565C485.155,-700.166 485.234,-682.997 485.599,-667.179"/>
<ellipse fill="none" stroke="#42c9b2" cx="485.429" cy="-720.753" rx="4" ry="4"/>
<polygon fill="#42c9b2" stroke="#42c9b2" points="485.603,-666.998 490.378,-657.126 485.741,-662 485.879,-657.002 485.879,-657.002 485.879,-657.002 485.741,-662 481.381,-656.878 485.603,-666.998 485.603,-666.998"/>
</g>
<!-- Draw -->
<g id="node3" class="node"><title>Draw</title>
<path fill="none" stroke="black" d="M680,-174.5C680,-174.5 972,-174.5 972,-174.5 978,-174.5 984,-180.5 984,-186.5 984,-186.5 984,-313.5 984,-313.5 984,-319.5 978,-325.5 972,-325.5 972,-325.5 680,-325.5 680,-325.5 674,-325.5 668,-319.5 668,-313.5 668,-313.5 668,-186.5 668,-186.5 668,-180.5 674,-174.5 680,-174.5"/>
<text text-anchor="middle" x="826" y="-310.3" font-family="Times,serif" font-size="14.00">Draw</text>
<polyline fill="none" stroke="black" points="668,-302.5 984,-302.5 "/>
<text text-anchor="start" x="676" y="-287.3" font-family="Times,serif" font-size="14.00">id :bigint</text>
<text text-anchor="start" x="676" y="-272.3" font-family="Times,serif" font-size="14.00">lottery_id :bigint</text>
<text text-anchor="start" x="676" y="-257.3" font-family="Times,serif" font-size="14.00">number :integer</text>
<text text-anchor="start" x="676" y="-242.3" font-family="Times,serif" font-size="14.00">date :date</text>
<text text-anchor="start" x="676" y="-227.3" font-family="Times,serif" font-size="14.00">numbers :text</text>
<text text-anchor="start" x="676" y="-212.3" font-family="Times,serif" font-size="14.00">prizes :text</text>
<text text-anchor="start" x="676" y="-197.3" font-family="Times,serif" font-size="14.00">created_at :timestamp without time zone</text>
<text text-anchor="start" x="676" y="-182.3" font-family="Times,serif" font-size="14.00">updated_at :timestamp without time zone</text>
</g>
<!-- Lottery -->
<g id="node5" class="node"><title>Lottery</title>
<path fill="none" stroke="black" d="M680,-377.5C680,-377.5 972,-377.5 972,-377.5 978,-377.5 984,-383.5 984,-389.5 984,-389.5 984,-456.5 984,-456.5 984,-462.5 978,-468.5 972,-468.5 972,-468.5 680,-468.5 680,-468.5 674,-468.5 668,-462.5 668,-456.5 668,-456.5 668,-389.5 668,-389.5 668,-383.5 674,-377.5 680,-377.5"/>
<text text-anchor="middle" x="826" y="-453.3" font-family="Times,serif" font-size="14.00">Lottery</text>
<polyline fill="none" stroke="black" points="668,-445.5 984,-445.5 "/>
<text text-anchor="start" x="676" y="-430.3" font-family="Times,serif" font-size="14.00">id :bigint</text>
<text text-anchor="start" x="676" y="-415.3" font-family="Times,serif" font-size="14.00">name :character varying</text>
<text text-anchor="start" x="676" y="-400.3" font-family="Times,serif" font-size="14.00">created_at :timestamp without time zone</text>
<text text-anchor="start" x="676" y="-385.3" font-family="Times,serif" font-size="14.00">updated_at :timestamp without time zone</text>
</g>
<!-- Draw&#45;&gt;Lottery -->
<g id="edge4" class="edge"><title>Draw&#45;&gt;Lottery</title>
<path fill="none" stroke="#24d188" d="M832.702,-325.712C832.825,-339.525 832.711,-353.721 832.358,-366.825"/>
<polygon fill="#24d188" stroke="#24d188" points="828.851,-366.963 832.023,-377.072 835.848,-367.191 828.851,-366.963"/>
</g>
<!-- User -->
<g id="node8" class="node"><title>User</title>
<path fill="none" stroke="black" d="M207,-362.5C207,-362.5 499,-362.5 499,-362.5 505,-362.5 511,-368.5 511,-374.5 511,-374.5 511,-471.5 511,-471.5 511,-477.5 505,-483.5 499,-483.5 499,-483.5 207,-483.5 207,-483.5 201,-483.5 195,-477.5 195,-471.5 195,-471.5 195,-374.5 195,-374.5 195,-368.5 201,-362.5 207,-362.5"/>
<text text-anchor="middle" x="353" y="-468.3" font-family="Times,serif" font-size="14.00">User</text>
<polyline fill="none" stroke="black" points="195,-460.5 511,-460.5 "/>
<text text-anchor="start" x="203" y="-445.3" font-family="Times,serif" font-size="14.00">id :bigint</text>
<text text-anchor="start" x="203" y="-430.3" font-family="Times,serif" font-size="14.00">name :character varying</text>
<text text-anchor="start" x="203" y="-415.3" font-family="Times,serif" font-size="14.00">email :character varying</text>
<text text-anchor="start" x="203" y="-400.3" font-family="Times,serif" font-size="14.00">avatar :character varying</text>
<text text-anchor="start" x="203" y="-385.3" font-family="Times,serif" font-size="14.00">created_at :timestamp without time zone</text>
<text text-anchor="start" x="203" y="-370.3" font-family="Times,serif" font-size="14.00">updated_at :timestamp without time zone</text>
</g>
<!-- Group&#45;&gt;User -->
<g id="edge6" class="edge"><title>Group&#45;&gt;User</title>
<path fill="none" stroke="#b3b291" d="M214.36,-551.265C234.958,-532.356 258.557,-510.693 280.375,-490.666"/>
<polygon fill="#b3b291" stroke="#b3b291" points="214.071,-551.53 203.661,-554.977 210.387,-554.911 206.704,-558.292 206.704,-558.292 206.704,-558.292 210.387,-554.911 209.747,-561.608 214.071,-551.53 214.071,-551.53"/>
<polygon fill="#b3b291" stroke="#b3b291" points="280.644,-490.419 291.054,-486.972 284.327,-487.038 288.011,-483.657 288.011,-483.657 288.011,-483.657 284.327,-487.038 284.968,-480.342 280.644,-490.419 280.644,-490.419"/>
</g>
<!-- UserGroup -->
<g id="node10" class="node"><title>UserGroup</title>
<path fill="none" stroke="black" d="M68,-1C68,-1 360,-1 360,-1 366,-1 372,-7 372,-13 372,-13 372,-125 372,-125 372,-131 366,-137 360,-137 360,-137 68,-137 68,-137 62,-137 56,-131 56,-125 56,-125 56,-13 56,-13 56,-7 62,-1 68,-1"/>
<text text-anchor="middle" x="214" y="-121.8" font-family="Times,serif" font-size="14.00">UserGroup</text>
<polyline fill="none" stroke="black" points="56,-114 372,-114 "/>
<text text-anchor="start" x="64" y="-98.8" font-family="Times,serif" font-size="14.00">id :bigint</text>
<text text-anchor="start" x="64" y="-83.8" font-family="Times,serif" font-size="14.00">user_id :bigint</text>
<text text-anchor="start" x="64" y="-68.8" font-family="Times,serif" font-size="14.00">group_id :bigint</text>
<text text-anchor="start" x="64" y="-53.8" font-family="Times,serif" font-size="14.00">admin :boolean</text>
<text text-anchor="start" x="64" y="-38.8" font-family="Times,serif" font-size="14.00">balance :double precision</text>
<text text-anchor="start" x="64" y="-23.8" font-family="Times,serif" font-size="14.00">created_at :timestamp without time zone</text>
<text text-anchor="start" x="64" y="-8.8" font-family="Times,serif" font-size="14.00">updated_at :timestamp without time zone</text>
</g>
<!-- Group&#45;&gt;UserGroup -->
<g id="edge5" class="edge"><title>Group&#45;&gt;UserGroup</title>
<path fill="none" stroke="#59297e" d="M159.309,-550.242C166.13,-455.765 186.748,-257.33 200.941,-147.409"/>
<ellipse fill="none" stroke="#59297e" cx="159.012" cy="-554.483" rx="4" ry="4"/>
<polygon fill="#59297e" stroke="#59297e" points="200.956,-147.295 206.713,-137.962 201.603,-142.337 202.251,-137.379 202.251,-137.379 202.251,-137.379 201.603,-142.337 197.789,-136.796 200.956,-147.295 200.956,-147.295"/>
</g>
<!-- Lottery&#45;&gt;Draw -->
<g id="edge7" class="edge"><title>Lottery&#45;&gt;Draw</title>
<path fill="none" stroke="#f40e00" d="M819.697,-368.763C819.394,-358.323 819.245,-347.132 819.25,-335.953"/>
<ellipse fill="none" stroke="#f40e00" cx="819.842" cy="-373.074" rx="4" ry="4"/>
<polygon fill="#f40e00" stroke="#f40e00" points="819.251,-335.711 823.798,-325.733 819.275,-330.712 819.298,-325.712 819.298,-325.712 819.298,-325.712 819.275,-330.712 814.798,-325.691 819.251,-335.711 819.251,-335.711"/>
</g>
<!-- LotteryBet&#45;&gt;BettingPool -->
<g id="edge8" class="edge"><title>LotteryBet&#45;&gt;BettingPool</title>
<path fill="none" stroke="#e2f5b0" d="M686,-687.138C666.617,-698.038 646.737,-709.147 627.439,-719.86"/>
<polygon fill="#e2f5b0" stroke="#e2f5b0" points="625.665,-716.842 618.618,-724.753 629.06,-722.964 625.665,-716.842"/>
</g>
<!-- LotteryBet&#45;&gt;Lottery -->
<g id="edge9" class="edge"><title>LotteryBet&#45;&gt;Lottery</title>
<path fill="none" stroke="#c4698e" d="M826,-520.834C826,-506.621 826,-492.158 826,-478.895"/>
<polygon fill="#c4698e" stroke="#c4698e" points="829.5,-478.542 826,-468.542 822.5,-478.542 829.5,-478.542"/>
</g>
<!-- PoolParticipation&#45;&gt;BettingPool -->
<g id="edge10" class="edge"><title>PoolParticipation&#45;&gt;BettingPool</title>
<path fill="none" stroke="#15ac60" d="M498.121,-657.002C498.7,-674.865 498.879,-695.262 498.659,-714.696"/>
<polygon fill="#15ac60" stroke="#15ac60" points="495.159,-714.701 498.508,-724.753 502.158,-714.807 495.159,-714.701"/>
</g>
<!-- PoolParticipation&#45;&gt;User -->
<g id="edge12" class="edge"><title>PoolParticipation&#45;&gt;User</title>
<path fill="none" stroke="#f9f650" d="M446.366,-544.233C432.901,-526.895 418.077,-507.804 404.283,-490.04"/>
<ellipse fill="none" stroke="#f9f650" cx="448.968" cy="-547.585" rx="4.00002" ry="4.00002"/>
<ellipse fill="#f9f650" stroke="#f9f650" cx="401.705" cy="-486.721" rx="4.00002" ry="4.00002"/>
</g>
<!-- PoolParticipation&#45;&gt;UserGroup -->
<g id="edge11" class="edge"><title>PoolParticipation&#45;&gt;UserGroup</title>
<path fill="none" stroke="#bef3c7" d="M525.635,-550.657C576.919,-463.536 660.188,-287.195 575,-174 550.55,-141.512 464.285,-116 382.217,-98.376"/>
<polygon fill="#bef3c7" stroke="#bef3c7" points="382.742,-94.9096 372.234,-96.2658 381.294,-101.758 382.742,-94.9096"/>
</g>
<!-- UserBalanceEntry -->
<g id="node9" class="node"><title>UserBalanceEntry</title>
<path fill="none" stroke="black" d="M263,-174.5C263,-174.5 555,-174.5 555,-174.5 561,-174.5 567,-180.5 567,-186.5 567,-186.5 567,-313.5 567,-313.5 567,-319.5 561,-325.5 555,-325.5 555,-325.5 263,-325.5 263,-325.5 257,-325.5 251,-319.5 251,-313.5 251,-313.5 251,-186.5 251,-186.5 251,-180.5 257,-174.5 263,-174.5"/>
<text text-anchor="middle" x="409" y="-310.3" font-family="Times,serif" font-size="14.00">UserBalanceEntry</text>
<polyline fill="none" stroke="black" points="251,-302.5 567,-302.5 "/>
<text text-anchor="start" x="259" y="-287.3" font-family="Times,serif" font-size="14.00">id :bigint</text>
<text text-anchor="start" x="259" y="-272.3" font-family="Times,serif" font-size="14.00">user_group_id :bigint</text>
<text text-anchor="start" x="259" y="-257.3" font-family="Times,serif" font-size="14.00">value :double precision</text>
<text text-anchor="start" x="259" y="-242.3" font-family="Times,serif" font-size="14.00">date :date</text>
<text text-anchor="start" x="259" y="-227.3" font-family="Times,serif" font-size="14.00">approved :boolean</text>
<text text-anchor="start" x="259" y="-212.3" font-family="Times,serif" font-size="14.00">created_at :timestamp without time zone</text>
<text text-anchor="start" x="259" y="-197.3" font-family="Times,serif" font-size="14.00">updated_at :timestamp without time zone</text>
<text text-anchor="start" x="259" y="-182.3" font-family="Times,serif" font-size="14.00">description :character varying</text>
</g>
<!-- User&#45;&gt;UserBalanceEntry -->
<g id="edge14" class="edge"><title>User&#45;&gt;UserBalanceEntry</title>
<path fill="none" stroke="#feec39" d="M375.722,-352.618C377.595,-346.898 379.501,-341.078 381.404,-335.265"/>
<polygon fill="#feec39" stroke="#feec39" points="375.698,-352.689 368.31,-360.792 374.142,-357.441 372.586,-362.192 372.586,-362.192 372.586,-362.192 374.142,-357.441 376.863,-363.593 375.698,-352.689 375.698,-352.689"/>
<polygon fill="#feec39" stroke="#feec39" points="381.487,-335.013 388.876,-326.91 383.043,-330.261 384.599,-325.51 384.599,-325.51 384.599,-325.51 383.043,-330.261 380.323,-324.109 381.487,-335.013 381.487,-335.013"/>
</g>
<!-- User&#45;&gt;UserGroup -->
<g id="edge13" class="edge"><title>User&#45;&gt;UserGroup</title>
<path fill="none" stroke="#aaae15" d="M254.553,-356.298C246.134,-346.967 238.682,-336.826 233,-326 204.159,-271.05 198.362,-200.428 200.533,-147.284"/>
<ellipse fill="none" stroke="#aaae15" cx="257.474" cy="-359.401" rx="4.00002" ry="4.00002"/>
<polygon fill="#aaae15" stroke="#aaae15" points="200.536,-147.222 205.542,-137.465 200.792,-142.228 201.048,-137.235 201.048,-137.235 201.048,-137.235 200.792,-142.228 196.554,-137.004 200.536,-147.222 200.536,-147.222"/>
</g>
<!-- UserBalanceEntry&#45;&gt;UserGroup -->
<g id="edge15" class="edge"><title>UserBalanceEntry&#45;&gt;UserGroup</title>
<path fill="none" stroke="#ac5c04" d="M321.048,-174.384C309.981,-164.33 298.749,-154.017 287.927,-143.974"/>
<polygon fill="#ac5c04" stroke="#ac5c04" points="290.213,-141.32 280.507,-137.07 285.444,-146.444 290.213,-141.32"/>
</g>
<!-- UserGroup&#45;&gt;Group -->
<g id="edge17" class="edge"><title>UserGroup&#45;&gt;Group</title>
<path fill="none" stroke="#f8a6df" d="M211.591,-137.379C203.263,-244.191 181.48,-450.311 168.021,-548.467"/>
<polygon fill="#f8a6df" stroke="#f8a6df" points="164.54,-548.086 166.624,-558.473 171.473,-549.053 164.54,-548.086"/>
</g>
<!-- UserGroup&#45;&gt;User -->
<g id="edge16" class="edge"><title>UserGroup&#45;&gt;User</title>
<path fill="none" stroke="#c32612" d="M215.588,-137.235C215.71,-191.26 220.3,-267.509 251,-326 256.357,-336.207 263.289,-345.805 271.02,-354.691"/>
<polygon fill="#c32612" stroke="#c32612" points="268.666,-357.302 278.001,-362.313 273.828,-352.574 268.666,-357.302"/>
</g>
<!-- UserGroup&#45;&gt;UserBalanceEntry -->
<g id="edge18" class="edge"><title>UserGroup&#45;&gt;UserBalanceEntry</title>
<path fill="none" stroke="#2608bc" d="M299.81,-142.672C308.783,-150.812 317.889,-159.145 326.82,-167.389"/>
<ellipse fill="none" stroke="#2608bc" cx="296.589" cy="-139.755" rx="4.00002" ry="4.00002"/>
<polygon fill="#2608bc" stroke="#2608bc" points="327.041,-167.593 331.325,-177.687 330.711,-170.988 334.381,-174.384 334.381,-174.384 334.381,-174.384 330.711,-170.988 337.437,-171.081 327.041,-167.593 327.041,-167.593"/>
</g>
</g>
</svg>
